<svg width="26" height="25" viewBox="0 0 26 25" fill="none" xmlns="http://www.w3.org/2000/svg">
<path d="M6.58348 19.3334H19.2176C20.3258 19.3334 20.88 19.3334 21.3316 19.1332C21.7298 18.9566 22.0706 18.6722 22.3155 18.312C22.5933 17.9035 22.6924 17.3583 22.8907 16.2679L24.4666 7.60033C24.5353 7.22241 24.5697 7.03345 24.5166 6.8859C24.47 6.75646 24.3792 6.64763 24.2602 6.57866C24.1245 6.50004 23.9324 6.50004 23.5483 6.50004H4.83348M1.33331 1.83337H2.86912C3.15226 1.83337 3.29382 1.83337 3.40832 1.88509C3.50923 1.93067 3.59509 2.00404 3.65585 2.09661C3.72479 2.20163 3.74687 2.34147 3.79103 2.62114L7.04226 23.2123C7.08642 23.4919 7.1085 23.6318 7.17744 23.7368C7.2382 23.8294 7.32406 23.9027 7.42497 23.9483C7.53947 24 7.68104 24 7.96417 24H21.1666" stroke="#111827" stroke-width="2" stroke-linecap="round" stroke-linejoin="round"/>
</svg>
