<svg width="21" height="20" viewBox="0 0 21 20" fill="none" xmlns="http://www.w3.org/2000/svg">
<path d="M10.5 0C4.97718 0 0.5 4.47714 0.5 10C0.5 15.5229 4.97718 20 10.5 20C16.0228 20 20.5 15.5228 20.5 10C20.5 4.47718 16.0229 0 10.5 0ZM15.7463 4.75371C18.3853 7.39274 18.5689 11.4263 16.58 14.2552L6.24476 3.92C9.07556 1.92984 13.1087 2.11617 15.7463 4.75371ZM5.25371 15.2463C2.61468 12.6073 2.43113 8.57367 4.41996 5.7448L14.7552 16.08C11.9245 18.0702 7.89129 17.8839 5.25371 15.2463Z" fill="#B91C1C"/>
</svg>
