<svg width="21" height="22" viewBox="0 0 21 22" fill="none" xmlns="http://www.w3.org/2000/svg">
<path d="M17.8125 3.68228C16.3656 2.23603 14.5223 1.2513 12.5158 0.852621C10.5092 0.453942 8.42954 0.659216 6.53965 1.44249C4.64977 2.22576 3.03459 3.55184 1.89836 5.25306C0.762124 6.95428 0.155867 8.95422 0.15625 11C0.15625 13.7438 1.24587 16.3753 3.18555 18.316C5.12523 20.2566 7.75619 21.3476 10.5 21.3489C11.8578 21.349 13.2024 21.0836 14.4583 20.5677C15.71 20.0391 16.8486 19.2753 17.8125 18.3177C18.7736 17.3568 19.536 16.216 20.0561 14.9604C20.5762 13.7048 20.844 12.359 20.844 11C20.844 9.64093 20.5762 8.29519 20.0561 7.0396C19.536 5.78402 18.7736 4.6432 17.8125 3.68228ZM17.0833 17.5781C15.5939 19.0741 13.6394 20.0183 11.5417 20.2552V13.4219H13.5C13.7763 13.4219 14.0412 13.3121 14.2366 13.1168C14.4319 12.9214 14.5417 12.6565 14.5417 12.3802C14.5417 12.1039 14.4319 11.839 14.2366 11.6436C14.0412 11.4483 13.7763 11.3385 13.5 11.3385H11.5417V8.48436C11.5417 8.2081 11.6514 7.94314 11.8468 7.74779C12.0421 7.55244 12.3071 7.4427 12.5833 7.4427H13.8333C14.1096 7.4427 14.3746 7.33295 14.5699 7.1376C14.7653 6.94225 14.875 6.6773 14.875 6.40103C14.875 6.12476 14.7653 5.85981 14.5699 5.66446C14.3746 5.46911 14.1096 5.35936 13.8333 5.35936H12.0625C11.3718 5.35936 10.7095 5.63373 10.2211 6.12211C9.7327 6.61048 9.45833 7.27286 9.45833 7.96353V11.3385H7.51042C7.23415 11.3385 6.9692 11.4483 6.77385 11.6436C6.5785 11.839 6.46875 12.1039 6.46875 12.3802C6.46875 12.6565 6.5785 12.9214 6.77385 13.1168C6.9692 13.3121 7.23415 13.4219 7.51042 13.4219H9.45833V20.2552C7.52384 20.0345 5.70758 19.2116 4.26609 17.9028C2.8246 16.5939 1.83074 14.8653 1.4249 12.961C1.01905 11.0567 1.22173 9.0731 2.0043 7.29026C2.78688 5.50741 4.1098 4.01549 5.7862 3.02522C7.4626 2.03495 9.40775 1.59638 11.3469 1.77147C13.286 1.94655 15.1212 2.72644 16.5931 4.00097C18.065 5.2755 19.0993 6.98026 19.5499 8.87444C20.0005 10.7686 19.8445 12.7565 19.1042 14.5573C18.6317 15.6851 17.9455 16.7109 17.0833 17.5781Z" fill="#2E1065"/>
</svg>
