<svg width="18" height="19" viewBox="0 0 18 19" fill="none" xmlns="http://www.w3.org/2000/svg">
<path d="M9.81859 2.30333C9.52582 2.07562 9.37943 1.96177 9.21779 1.918C9.07516 1.87938 8.92484 1.87938 8.78221 1.918C8.62057 1.96177 8.47418 2.07562 8.18141 2.30333L2.52949 6.69927C2.15168 6.99312 1.96278 7.14005 1.82669 7.32405C1.70614 7.48704 1.61633 7.67065 1.56169 7.86588C1.5 8.08627 1.5 8.32558 1.5 8.80421V14.8333C1.5 15.7667 1.5 16.2335 1.68166 16.59C1.84144 16.9036 2.09641 17.1585 2.41002 17.3183C2.76654 17.5 3.23325 17.5 4.16667 17.5H5.83333C6.06669 17.5 6.18337 17.5 6.2725 17.4546C6.3509 17.4146 6.41464 17.3509 6.45459 17.2725C6.5 17.1834 6.5 17.0667 6.5 16.8333V11.3333C6.5 10.8666 6.5 10.6333 6.59083 10.455C6.67072 10.2982 6.79821 10.1707 6.95501 10.0908C7.13327 9.99999 7.36662 9.99999 7.83333 9.99999H10.1667C10.6334 9.99999 10.8667 9.99999 11.045 10.0908C11.2018 10.1707 11.3293 10.2982 11.4092 10.455C11.5 10.6333 11.5 10.8666 11.5 11.3333V16.8333C11.5 17.0667 11.5 17.1834 11.5454 17.2725C11.5854 17.3509 11.6491 17.4146 11.7275 17.4546C11.8166 17.5 11.9333 17.5 12.1667 17.5H13.8333C14.7668 17.5 15.2335 17.5 15.59 17.3183C15.9036 17.1585 16.1586 16.9036 16.3183 16.59C16.5 16.2335 16.5 15.7667 16.5 14.8333V8.80421C16.5 8.32558 16.5 8.08627 16.4383 7.86588C16.3837 7.67065 16.2939 7.48704 16.1733 7.32405C16.0372 7.14005 15.8483 6.99312 15.4705 6.69927L9.81859 2.30333Z" stroke="#6B7280" stroke-width="2" stroke-linecap="round" stroke-linejoin="round"/>
</svg>
