<svg width="21" height="22" viewBox="0 0 21 22" fill="none" xmlns="http://www.w3.org/2000/svg">
<path d="M10.5 15.1668C11.6051 15.1668 12.6649 14.7278 13.4463 13.9464C14.2277 13.165 14.6667 12.1052 14.6667 11.0002C14.6667 9.89509 14.2277 8.83529 13.4463 8.05388C12.6649 7.27248 11.6051 6.8335 10.5 6.8335C9.39497 6.8335 8.33516 7.27248 7.55376 8.05388C6.77236 8.83529 6.33337 9.89509 6.33337 11.0002C6.33337 12.1052 6.77236 13.165 7.55376 13.9464C8.33516 14.7278 9.39497 15.1668 10.5 15.1668Z" stroke="#2E1065" stroke-width="1.5" stroke-linecap="round" stroke-linejoin="round"/>
<path d="M1.125 15.1667V6.83333C1.125 5.452 1.67373 4.12724 2.65049 3.15049C3.62724 2.17373 4.952 1.625 6.33333 1.625H14.6667C16.048 1.625 17.3728 2.17373 18.3495 3.15049C19.3263 4.12724 19.875 5.452 19.875 6.83333V15.1667C19.875 16.548 19.3263 17.8728 18.3495 18.8495C17.3728 19.8263 16.048 20.375 14.6667 20.375H6.33333C4.952 20.375 3.62724 19.8263 2.65049 18.8495C1.67373 17.8728 1.125 16.548 1.125 15.1667Z" stroke="#2E1065" stroke-width="1.5"/>
<path d="M16.2291 5.28148L16.2395 5.27002" stroke="#2E1065" stroke-width="1.5" stroke-linecap="round" stroke-linejoin="round"/>
</svg>
