<svg width="26" height="26" viewBox="0 0 26 26" fill="none" xmlns="http://www.w3.org/2000/svg">
<path d="M4.83325 15.6676C2.67333 16.6204 1.33325 17.9482 1.33325 19.4168C1.33325 22.3163 6.5566 24.6668 12.9999 24.6668C19.4432 24.6668 24.6666 22.3163 24.6666 19.4168C24.6666 17.9482 23.3265 16.6204 21.1666 15.6676M19.9999 8.3335C19.9999 13.0745 14.7499 15.3335 12.9999 18.8335C11.2499 15.3335 5.99992 13.0745 5.99992 8.3335C5.99992 4.4675 9.13392 1.3335 12.9999 1.3335C16.8659 1.3335 19.9999 4.4675 19.9999 8.3335ZM14.1666 8.3335C14.1666 8.97783 13.6443 9.50016 12.9999 9.50016C12.3556 9.50016 11.8333 8.97783 11.8333 8.3335C11.8333 7.68916 12.3556 7.16683 12.9999 7.16683C13.6443 7.16683 14.1666 7.68916 14.1666 8.3335Z" stroke="black" stroke-width="2" stroke-linecap="round" stroke-linejoin="round"/>
</svg>
