<svg width="25" height="25" viewBox="0 0 25 25" fill="none" xmlns="http://www.w3.org/2000/svg">
<path d="M7.77699 9.32891C8.58899 11.0201 9.69591 12.6052 11.0977 14.0071C12.4996 15.4089 14.0847 16.5158 15.7759 17.3278C15.9214 17.3977 15.9941 17.4326 16.0861 17.4594C16.4132 17.5548 16.8149 17.4863 17.0919 17.2879C17.1698 17.2321 17.2365 17.1654 17.3699 17.0321C17.7777 16.6242 17.9817 16.4203 18.1867 16.2869C18.9601 15.7841 19.9571 15.7841 20.7305 16.2869C20.9356 16.4203 21.1395 16.6242 21.5474 17.0321L21.7747 17.2594C22.3947 17.8794 22.7047 18.1894 22.8731 18.5224C23.2081 19.1845 23.2081 19.9665 22.8731 20.6287C22.7047 20.9616 22.3947 21.2716 21.7747 21.8916L21.5908 22.0755C20.9729 22.6934 20.664 23.0024 20.2439 23.2383C19.7778 23.5002 19.0539 23.6884 18.5194 23.6868C18.0376 23.6854 17.7083 23.5919 17.0498 23.405C13.5108 22.4006 10.1714 20.5053 7.38544 17.7194C4.59946 14.9334 2.70424 11.594 1.69977 8.05501C1.51287 7.39649 1.41941 7.06723 1.41798 6.58546C1.41639 6.05086 1.60464 5.32696 1.86647 4.86087C2.10242 4.44083 2.41137 4.13188 3.02926 3.51399L3.21317 3.33008C3.83319 2.71007 4.14319 2.40006 4.47614 2.23166C5.13829 1.89674 5.92027 1.89674 6.58242 2.23165C6.91537 2.40006 7.22538 2.71006 7.84539 3.33008L8.07274 3.55743C8.48062 3.9653 8.68455 4.16924 8.81789 4.37431C9.32071 5.14769 9.32071 6.1447 8.81788 6.91807C8.68455 7.12314 8.48062 7.32708 8.07274 7.73495C7.93938 7.86832 7.8727 7.935 7.81688 8.01295C7.61853 8.28995 7.55005 8.69159 7.64539 9.01866C7.67222 9.1107 7.70715 9.18344 7.77699 9.32891Z" stroke="black" stroke-width="2" stroke-linecap="round" stroke-linejoin="round"/>
</svg>
