<svg width="26" height="26" viewBox="0 0 26 26" fill="none" xmlns="http://www.w3.org/2000/svg">
<path d="M7.0419 18.4167H18.7735C19.8027 18.4167 20.3172 18.4167 20.7366 18.2308C21.1063 18.0669 21.4228 17.8028 21.6502 17.4683C21.9082 17.089 22.0002 16.5827 22.1843 15.5702L23.6477 7.52178C23.7115 7.17085 23.7434 6.99539 23.6941 6.85838C23.6508 6.73818 23.5665 6.63713 23.456 6.57308C23.33 6.50008 23.1516 6.50008 22.795 6.50008H5.4169M2.16675 2.16675H3.59285C3.85577 2.16675 3.98722 2.16675 4.09354 2.21477C4.18725 2.2571 4.26697 2.32522 4.32339 2.41118C4.38741 2.5087 4.40791 2.63855 4.44891 2.89825L7.46792 22.0186C7.50892 22.2783 7.52942 22.4081 7.59344 22.5057C7.64986 22.5916 7.72958 22.6597 7.82329 22.7021C7.92961 22.7501 8.06106 22.7501 8.32398 22.7501H20.5834" stroke="white" stroke-width="2" stroke-linecap="round" stroke-linejoin="round"/>
</svg>
