<svg width="21" height="20" viewBox="0 0 21 20" fill="none" xmlns="http://www.w3.org/2000/svg">
<path opacity="0.8" d="M20.5 10C20.5 15.5229 16.0229 20 10.5 20C4.97714 20 0.5 15.5229 0.5 10C0.5 4.47714 4.97714 0 10.5 0C16.0229 0 20.5 4.47714 20.5 10ZM9.34331 15.2949L16.7627 7.87556C17.0146 7.62363 17.0146 7.21512 16.7627 6.96318L15.8503 6.05081C15.5983 5.79883 15.1898 5.79883 14.9379 6.05081L8.8871 12.1015L6.06214 9.27657C5.8102 9.02464 5.40169 9.02464 5.14972 9.27657L4.23734 10.189C3.9854 10.4409 3.9854 10.8494 4.23734 11.1013L8.43089 15.2949C8.68286 15.5469 9.09133 15.5469 9.34331 15.2949Z" fill="#15803D"/>
</svg>
