<svg width="26" height="27" viewBox="0 0 26 27" fill="none" xmlns="http://www.w3.org/2000/svg">
<path d="M5.20238 22.1782C5.9121 20.5061 7.56912 19.3334 9.50004 19.3334H16.5C18.431 19.3334 20.088 20.5061 20.7977 22.1782M17.6667 10.5834C17.6667 13.1607 15.5774 15.25 13 15.25C10.4227 15.25 8.33337 13.1607 8.33337 10.5834C8.33337 8.00604 10.4227 5.91671 13 5.91671C15.5774 5.91671 17.6667 8.00604 17.6667 10.5834ZM24.6667 13.5C24.6667 19.9434 19.4434 25.1667 13 25.1667C6.55672 25.1667 1.33337 19.9434 1.33337 13.5C1.33337 7.05672 6.55672 1.83337 13 1.83337C19.4434 1.83337 24.6667 7.05672 24.6667 13.5Z" stroke="#111827" stroke-width="2" stroke-linecap="round" stroke-linejoin="round"/>
</svg>
