<svg width="24" height="20" viewBox="0 0 24 20" fill="none" xmlns="http://www.w3.org/2000/svg">
<path d="M23.2411 17.188C23.9782 18.4378 23.053 20 21.5809 20H2.41883C0.943919 20 0.0230411 18.4354 0.758642 17.188L10.3398 0.936914C11.0772 -0.313437 12.9241 -0.311172 13.6602 0.936914L23.2411 17.188ZM12 13.8281C10.9856 13.8281 10.1632 14.6326 10.1632 15.625C10.1632 16.6174 10.9856 17.4219 12 17.4219C13.0144 17.4219 13.8368 16.6174 13.8368 15.625C13.8368 14.6326 13.0144 13.8281 12 13.8281ZM10.2561 7.3693L10.5523 12.6818C10.5662 12.9304 10.7763 13.125 11.0308 13.125H12.9692C13.2237 13.125 13.4338 12.9304 13.4477 12.6818L13.7439 7.3693C13.7589 7.10078 13.5403 6.875 13.2654 6.875H10.7345C10.4596 6.875 10.2411 7.10078 10.2561 7.3693Z" fill="#A16207"/>
</svg>
