<svg width="21" height="18" viewBox="0 0 21 18" fill="none" xmlns="http://www.w3.org/2000/svg">
<path d="M13.4084 7.7238L9.58754 5.5238C9.36321 5.39464 9.10885 5.32675 8.85 5.32694C8.59114 5.32714 8.33688 5.3954 8.11274 5.52488C7.8886 5.65437 7.70245 5.84052 7.57297 6.06466C7.44349 6.28881 7.37523 6.54307 7.37504 6.80192V11.1998C7.37192 11.7269 7.65317 12.2144 8.11046 12.4748C8.33466 12.6058 8.58958 12.675 8.84924 12.6754C9.1089 12.6757 9.36401 12.6073 9.58858 12.4769L13.4084 10.2769C13.6328 10.1479 13.8192 9.96203 13.9488 9.738C14.0784 9.51396 14.1467 9.25971 14.1467 9.00088C14.1467 8.74205 14.0784 8.4878 13.9488 8.26376C13.8192 8.03973 13.6328 7.85384 13.4084 7.72484M12.8875 9.37275L9.06879 11.5738C9.00262 11.6126 8.92728 11.6331 8.85056 11.6331C8.77384 11.6331 8.69851 11.6126 8.63233 11.5738C8.56596 11.5362 8.51091 11.4815 8.47297 11.4153C8.43504 11.3492 8.4156 11.274 8.41671 11.1978V6.80192C8.41597 6.72601 8.43559 6.65129 8.47351 6.58553C8.51143 6.51976 8.56627 6.46536 8.63233 6.42796C8.69793 6.38804 8.77325 6.36692 8.85004 6.36692C8.92683 6.36692 9.00215 6.38804 9.06775 6.42796L12.8875 8.629C12.9534 8.66621 13.0082 8.72025 13.0464 8.78559C13.0845 8.85092 13.1046 8.92522 13.1046 9.00088C13.1046 9.07654 13.0845 9.15083 13.0464 9.21617C13.0082 9.28151 12.9534 9.33555 12.8875 9.37275ZM17.7917 0.666504H3.20837C2.37983 0.667331 1.58545 0.996837 0.999579 1.58271C0.413707 2.16858 0.0842013 2.96296 0.083374 3.7915V14.2082C0.0842013 15.0367 0.413707 15.8311 0.999579 16.417C1.58545 17.0028 2.37983 17.3323 3.20837 17.3332H17.7917C18.6203 17.3323 19.4146 17.0028 20.0005 16.417C20.5864 15.8311 20.9159 15.0367 20.9167 14.2082V3.7915C20.9159 2.96296 20.5864 2.16858 20.0005 1.58271C19.4146 0.996837 18.6203 0.667331 17.7917 0.666504ZM19.875 14.2082C19.8742 14.7605 19.6545 15.2899 19.2639 15.6804C18.8734 16.0709 18.344 16.2907 17.7917 16.2915H3.20837C2.65609 16.2907 2.12667 16.0709 1.73615 15.6804C1.34563 15.2899 1.12587 14.7605 1.12504 14.2082V3.7915C1.12587 3.23922 1.34563 2.7098 1.73615 2.31928C2.12667 1.92876 2.65609 1.709 3.20837 1.70817H17.7917C18.344 1.709 18.8734 1.92876 19.2639 2.31928C19.6545 2.7098 19.8742 3.23922 19.875 3.7915V14.2082Z" fill="#2E1065"/>
</svg>
